<svg xmlns="http://www.w3.org/2000/svg" x="0px" y="0px" width="30" height="30" viewBox="0 0 172 172" style="fill: #000000">
                      <g fill="none" fill-rule="nonzero" stroke="none" stroke-width="1" stroke-linecap="butt" stroke-linejoin="miter" stroke-miterlimit="10" stroke-dasharray="" stroke-dashoffset="0" font-family="none" font-weight="none" font-size="none" text-anchor="none" style="mix-blend-mode: normal">
                        <path d="M0,172v-172h172v172z" fill="none"></path>
                        <path d="M18.06,172c-9.97426,0 -18.06,-8.08574 -18.06,-18.06v-135.88c0,-9.97426 8.08574,-18.06 18.06,-18.06h135.88c9.97426,0 18.06,8.08574 18.06,18.06v135.88c0,9.97426 -8.08574,18.06 -18.06,18.06z" fill="#ffd600"></path>
                        <g>
                          <path d="M34.4,137.6v-103.2h103.2v103.2z" fill="#ffd600"></path>
                          <path d="M101.8756,111.64807c1.98373,3.22213 4.13947,6.30953 8.70607,6.30953c3.8356,0 5.848,-1.90633 5.848,-4.54367c0,-3.1562 -2.0812,-4.27707 -6.30093,-6.1146l-2.3134,-0.98613c-6.67647,-2.83227 -11.11693,-6.3812 -11.11693,-13.87753c0,-6.90867 5.289,-12.16613 13.5536,-12.16613c5.88527,0 10.1136,2.0382 13.16373,7.37593l-7.2068,4.60673c-1.58527,-2.83227 -3.29953,-3.9474 -5.95693,-3.9474c-2.71187,0 -4.429,1.7114 -4.429,3.9474c0,2.76347 1.72,3.88147 5.69033,5.59287l2.3134,0.98613c7.869,3.35113 12.3066,6.77393 12.3066,14.46807c0,8.2904 -6.54747,12.83407 -15.33667,12.83407c-8.59713,0 -13.47907,-4.31433 -16.19667,-9.65493zM68.6624,111.88313c1.45053,2.5972 3.655,4.59527 6.82553,4.59527c3.03293,0 4.77873,-1.19827 4.77873,-5.8566v-30.35513h9.5546v31.82287c0,9.65207 -5.5986,14.0438 -13.77433,14.0438c-7.3874,0 -12.7194,-5.0052 -14.89233,-9.65493z" fill="#000001"></path>
                        </g>
                      </g>
                    </svg>