<svg xmlns="http://www.w3.org/2000/svg" x="0px" y="0px" width="30" height="30" viewBox="0 0 172 172" style="fill: #000000">
                      <g fill="none" fill-rule="nonzero" stroke="none" stroke-width="1" stroke-linecap="butt" stroke-linejoin="miter" stroke-miterlimit="10" stroke-dasharray="" stroke-dashoffset="0" font-family="none" font-weight="none" font-size="none" text-anchor="none" style="mix-blend-mode: normal">
                        <path d="M0,172v-172h172v172z" fill="none"></path>
                        <path d="M18.06,172c-9.97426,0 -18.06,-8.08574 -18.06,-18.06v-135.88c0,-9.97426 8.08574,-18.06 18.06,-18.06h135.88c9.97426,0 18.06,8.08574 18.06,18.06v135.88c0,9.97426 -8.08574,18.06 -18.06,18.06z" fill="#55f5ff"></path>
                        <g fill="#ffffff">
                          <circle cx="64.33674" cy="64.3365" transform="scale(1.33672,1.33672)" r="7"></circle>
                          <path d="M86,96.69341c-5.89626,0 -10.69373,-4.79748 -10.69373,-10.69373c0,-5.89626 4.79748,-10.69373 10.69373,-10.69373c5.89626,0 10.69373,4.79748 10.69373,10.69373c0,5.89626 -4.79748,10.69373 -10.69373,10.69373zM86,77.97938c-4.4232,0 -8.0203,3.5971 -8.0203,8.0203c0,4.4232 3.5971,8.0203 8.0203,8.0203c4.4232,0 8.0203,-3.5971 8.0203,-8.0203c0,-4.4232 -3.5971,-8.0203 -8.0203,-8.0203z"></path>
                          <path d="M137.46359,85.99968c0,-7.18619 -8.6539,-13.40593 -22.07989,-17.1073c3.4514,-13.49549 2.38871,-24.10769 -3.7789,-27.7088c-2.43282,-1.42093 -5.3843,-1.68025 -8.77154,-0.77396c-5.10358,1.36612 -10.95172,5.36023 -16.83327,11.22708c-5.88155,-5.86685 -11.72969,-9.85962 -16.83327,-11.22708c-3.38724,-0.90763 -6.33871,-0.64697 -8.77154,0.77396c-6.16761,3.60111 -7.2303,14.21197 -3.7789,27.7088c-13.42598,3.70137 -22.07989,9.92111 -22.07989,17.1073c0,7.18619 8.6539,13.40593 22.07989,17.10864c-3.4514,13.49549 -2.38871,24.10769 3.7789,27.7088c1.48643,0.86753 3.16535,1.30464 5.02071,1.3033c1.18032,0 2.43282,-0.17645 3.75083,-0.52934c5.10358,-1.36746 10.95172,-5.36023 16.83327,-11.22708c5.88155,5.86685 11.72969,9.85962 16.83327,11.22708c1.318,0.35289 2.57051,0.52934 3.75083,0.52934c1.85536,0 3.53428,-0.43443 5.02071,-1.3033c6.16761,-3.60111 7.22896,-14.21331 3.7789,-27.7088c13.42598,-3.70271 22.07989,-9.92245 22.07989,-17.10864zM103.87057,44.28209c0.96912,-0.25799 1.86739,-0.38898 2.69482,-0.38898c1.14958,0 2.16013,0.2513 3.01697,0.75257c4.13313,2.41411 4.9766,11.25516 1.89814,23.27358c-4.2414,-0.95442 -8.86912,-1.67223 -13.7869,-2.11602c-2.88597,-4.1612 -5.88824,-7.94945 -8.91323,-11.26719c5.37093,-5.38296 10.64027,-9.0616 15.0902,-10.25395zM100.37639,94.41966c-1.57599,2.76166 -3.23485,5.40702 -4.93649,7.93876c-3.02098,0.22591 -6.17028,0.35022 -9.43989,0.35022c-3.26961,0 -6.41891,-0.12431 -9.43856,-0.35022c-1.70164,-2.53174 -3.36051,-5.1771 -4.93649,-7.93876c-1.62946,-2.85523 -3.09183,-5.66768 -4.40181,-8.41864c1.30998,-2.75096 2.77235,-5.56342 4.40181,-8.41998c1.57733,-2.76299 3.23485,-5.40836 4.93783,-7.9401c3.01964,-0.22591 6.16761,-0.35022 9.43722,-0.35022c3.26961,0 6.41758,0.12431 9.43856,0.35022c1.70164,2.53174 3.36051,5.17844 4.93783,7.9401c1.62946,2.85523 3.09183,5.66768 4.40181,8.41998c-1.30998,2.75096 -2.77235,5.56342 -4.40181,8.41864zM106.9116,90.73834c1.39152,3.28966 2.5411,6.45634 3.47145,9.46663c-3.04103,0.67772 -6.32401,1.24315 -9.83021,1.66154c1.12552,-1.77249 2.23499,-3.58507 3.3057,-5.46049c1.08408,-1.8968 2.09597,-3.78826 3.05306,-5.66768zM86,114.54794c-2.18687,-2.41812 -4.36973,-5.09556 -6.50179,-7.99223c2.12805,0.10293 4.29353,0.16308 6.50179,0.16308c2.20826,0 4.37374,-0.06015 6.50179,-0.16308c-2.13206,2.89533 -4.31492,5.57277 -6.50179,7.99223zM71.44583,101.86651c-3.50487,-0.41839 -6.78918,-0.98382 -9.83021,-1.66154c0.93035,-3.01029 2.07993,-6.1783 3.47145,-9.46663c0.95709,1.87942 1.97032,3.77088 3.05306,5.66768c1.07205,1.87675 2.18019,3.68934 3.3057,5.46049zM65.0884,81.26236c-1.39152,-3.28966 -2.54244,-6.45768 -3.47145,-9.4693c3.04103,-0.67772 6.32534,-1.24315 9.83155,-1.66154c-1.12685,1.77249 -2.23499,3.58641 -3.3057,5.46182c-1.08541,1.89814 -2.09731,3.78959 -3.0544,5.66902zM86,57.45276c2.18687,2.41812 4.36973,5.09556 6.50179,7.99223c-2.12805,-0.10426 -4.29353,-0.16442 -6.50179,-0.16442c-2.20826,0 -4.37374,0.06015 -6.50179,0.16308c2.13206,-2.89533 4.31492,-5.57277 6.50179,-7.99089zM103.85854,75.59468c-1.07071,-1.87675 -2.18019,-3.68934 -3.3057,-5.46182c3.50621,0.41839 6.78918,0.98382 9.83155,1.66154c-0.93035,3.01162 -2.07993,6.1783 -3.47145,9.4693c-0.95843,-1.88076 -1.97032,-3.77221 -3.0544,-5.66902zM62.41764,44.64567c0.85817,-0.50127 1.86606,-0.75257 3.01697,-0.75257c0.82609,0 1.72704,0.131 2.69482,0.38898c4.44993,1.19235 9.71927,4.86966 15.0902,10.25262c-3.02499,3.31773 -6.02726,7.10732 -8.91323,11.26719c-4.91778,0.44379 -9.54683,1.16161 -13.7869,2.11602c-3.07846,-12.01842 -2.23499,-20.85946 1.89814,-23.27224zM38.54656,85.99968c0,-4.80683 7.21961,-9.94517 19.16183,-13.23483c1.29528,4.22269 2.99558,8.66994 5.08754,13.23483c-2.09196,4.56489 -3.79227,9.01214 -5.08754,13.23483c-11.94223,-3.28966 -19.16183,-8.428 -19.16183,-13.23483zM68.12943,127.71727c-2.31653,0.61756 -4.23739,0.49592 -5.71179,-0.36225c-4.13313,-2.41411 -4.97526,-11.25516 -1.89814,-23.27358c4.24007,0.95442 8.86912,1.67223 13.78556,2.11602c2.88597,4.1612 5.88824,7.94945 8.91323,11.26852c-5.36959,5.38162 -10.63893,9.05893 -15.08886,10.25128zM109.58236,127.35502c-1.4744,0.86085 -3.39392,0.98115 -5.71179,0.36225c-4.44993,-1.19235 -9.71927,-4.86966 -15.0902,-10.25262c3.02499,-3.31773 6.02726,-7.10732 8.91323,-11.26852c4.91778,-0.44379 9.54549,-1.16161 13.78556,-2.11602c3.0798,12.01976 2.23633,20.8608 -1.8968,23.27491zM114.29161,99.23451c-1.29528,-4.22269 -2.99558,-8.66994 -5.08754,-13.23483c2.09196,-4.56489 3.79227,-9.01348 5.08754,-13.23483c11.94223,3.28966 19.16183,8.428 19.16183,13.23483c0,4.80683 -7.21961,9.94517 -19.16183,13.23483z"></path>
                          <path d="M65.40788,132.78744c-1.96631,0 -3.76553,-0.46919 -5.3482,-1.3942c-6.19167,-3.61582 -7.73023,-13.7361 -4.24809,-27.81841c-13.95666,-3.96871 -21.94354,-10.35688 -21.94354,-17.57515c0,-7.21827 7.98688,-13.60644 21.94221,-17.57515c-3.48081,-14.08231 -1.94225,-24.20259 4.24942,-27.81841c2.59056,-1.51584 5.71179,-1.79922 9.28082,-0.84213c4.96991,1.33137 10.72047,5.10626 16.6595,10.93301c5.94037,-5.82675 11.69092,-9.60164 16.6595,-10.93301c3.5677,-0.95442 6.69027,-0.67103 9.28216,0.84213c6.19034,3.61582 7.7289,13.7361 4.24809,27.81841c13.95532,3.96871 21.94221,10.35688 21.94221,17.57515c0,7.21827 -7.98688,13.60644 -21.94221,17.57515c3.48081,14.08231 1.94359,24.20126 -4.24809,27.81841c-2.57585,1.50381 -5.72917,1.79387 -9.28082,0.84213c-4.97125,-1.33137 -10.72181,-5.10626 -16.66084,-10.93167c-5.93903,5.82541 -11.68959,9.60164 -16.6595,10.93167c-1.36746,0.36626 -2.68814,0.55206 -3.9246,0.55206c-0.00267,0 -0.00535,0 -0.00802,0zM65.41991,40.54997c-1.73907,0 -3.30704,0.40369 -4.68787,1.21107c-5.64629,3.29768 -6.94291,13.37786 -3.46878,26.96559c0.08956,0.35289 -0.11897,0.71381 -0.47052,0.81005c-13.51688,3.72677 -21.58798,9.88235 -21.58798,16.463c0,6.58066 8.0711,12.73624 21.58931,16.463c0.35156,0.09624 0.56008,0.45716 0.47052,0.81005c-3.47546,13.58773 -2.17885,23.66924 3.46744,26.96559c1.37682,0.80337 2.95013,1.21107 4.67584,1.21107c0.00267,0 0.00535,0 0.00802,0c1.12017,0 2.32321,-0.16976 3.57839,-0.50528c4.87501,-1.30597 10.59348,-5.12765 16.53385,-11.05465c0.26066,-0.25932 0.68306,-0.25932 0.94372,0c5.94037,5.92567 11.65884,9.74734 16.53385,11.05465c3.2001,0.85416 5.99517,0.61623 8.26225,-0.70579c5.64629,-3.29768 6.94291,-13.37786 3.46744,-26.96559c-0.08956,-0.35289 0.11897,-0.71381 0.47052,-0.81005c13.51822,-3.72677 21.58931,-9.88235 21.58931,-16.463c0,-6.58066 -8.0711,-12.73624 -21.58931,-16.463c-0.35156,-0.09624 -0.56008,-0.45716 -0.47052,-0.81005c3.47413,-13.58773 2.17751,-23.66924 -3.46878,-26.96559c-2.27108,-1.32736 -5.05145,-1.56396 -8.26225,-0.70579c-4.87501,1.30597 -10.59214,5.12765 -16.53385,11.05465c-0.26066,0.25932 -0.68306,0.25932 -0.94372,0c-5.94171,-5.927 -11.65884,-9.74868 -16.53385,-11.05465c-1.25785,-0.33685 -2.4502,-0.50528 -3.57304,-0.50528zM106.56672,128.77328c-0.88624,0 -1.84333,-0.13635 -2.86859,-0.41037c-4.4526,-1.19369 -9.77407,-4.79748 -15.39096,-10.42639c-0.2513,-0.25264 -0.26066,-0.659 -0.02139,-0.92233c3.02766,-3.3204 6.00721,-7.08861 8.85842,-11.19901c0.11228,-0.16308 0.2914,-0.26734 0.48924,-0.28472c4.82822,-0.43577 9.43722,-1.14289 13.70001,-2.10266c0.34888,-0.07887 0.70445,0.13501 0.79401,0.48656c3.12257,12.19487 2.27643,21.39816 -2.20826,24.01679v0c-0.9611,0.56142 -2.0826,0.84213 -3.35249,0.84213zM89.70404,117.44059c5.28137,5.20518 10.22989,8.52959 14.33896,9.63104c2.13741,0.57078 3.88851,0.47186 5.2025,-0.29408v0c3.81633,-2.22964 4.48736,-10.79131 1.74575,-21.90478c-4.04758,0.8809 -8.39057,1.5399 -12.92605,1.96096c-2.69482,3.86578 -5.5046,7.42947 -8.36116,10.60685zM65.43328,128.77328c-1.26988,0 -2.39139,-0.28071 -3.35249,-0.84079c-4.48468,-2.61996 -5.33216,-11.82326 -2.20826,-24.01813c0.08956,-0.35022 0.44513,-0.56008 0.79401,-0.48656c4.26145,0.95976 8.87045,1.66689 13.70001,2.10266c0.1965,0.01738 0.37695,0.12164 0.48924,0.28472c2.85122,4.1104 5.83076,7.87861 8.85842,11.19901c0.24061,0.26333 0.23125,0.6697 -0.02139,0.92233c-5.61688,5.62758 -10.93835,9.2327 -15.38962,10.42639v0c-1.0266,0.27269 -1.98502,0.41037 -2.86993,0.41037zM61.00874,104.87278c-2.74161,11.11213 -2.07057,19.67513 1.74575,21.90478c1.31266,0.7646 3.06375,0.86486 5.2025,0.29408v0c4.10907,-1.10145 9.05759,-4.42721 14.33896,-9.63104c-2.85523,-3.17738 -5.66501,-6.74106 -8.35983,-10.60685c-4.53548,-0.42107 -8.87981,-1.08007 -12.92739,-1.96096zM86,115.21496c-0.18848,0 -0.36893,-0.0802 -0.49592,-0.22056c-2.22296,-2.45822 -4.42453,-5.16507 -6.54457,-8.04436c-0.15239,-0.20719 -0.17244,-0.48523 -0.0508,-0.71247c0.12164,-0.22724 0.34888,-0.36626 0.62157,-0.35156c4.41919,0.21521 8.52023,0.21521 12.93942,0c0.26734,-0.01604 0.49993,0.12431 0.62157,0.35156c0.12164,0.22724 0.10293,0.50394 -0.0508,0.71247c-2.12003,2.87795 -4.32161,5.5848 -6.54457,8.04436c-0.12699,0.14036 -0.30744,0.22056 -0.49592,0.22056zM80.87636,107.28556c1.67223,2.21227 3.39125,4.31225 5.12364,6.26118c1.73372,-1.94893 3.4514,-4.04758 5.12364,-6.26118c-3.4915,0.13367 -6.75577,0.13367 -10.24727,0zM86,103.377c-3.16668,0 -6.35876,-0.11763 -9.48935,-0.35156c-0.20452,-0.0147 -0.39032,-0.12298 -0.50528,-0.29408c-1.78719,-2.65873 -3.45675,-5.34419 -4.96189,-7.9802c-1.57733,-2.76433 -3.06643,-5.61154 -4.42453,-8.46409c-0.08689,-0.18179 -0.08689,-0.39299 0,-0.57479c1.3581,-2.85255 2.84721,-5.69976 4.42453,-8.46409c1.50381,-2.63333 3.17337,-5.3188 4.96323,-7.98154c0.11362,-0.16976 0.30076,-0.27804 0.50528,-0.29408c6.26118,-0.46785 12.71619,-0.46785 18.97603,0c0.20452,0.0147 0.39032,0.12298 0.50528,0.29408c1.78986,2.66274 3.45942,5.3482 4.96323,7.98154c1.57733,2.76433 3.06643,5.61154 4.42453,8.46409c0.08689,0.18179 0.08689,0.39299 0,0.57479c-1.3581,2.85255 -2.84721,5.69976 -4.42453,8.46409v0c-1.50514,2.63601 -3.1747,5.32147 -4.96189,7.9802c-0.11362,0.16976 -0.30076,0.27804 -0.50528,0.29408c-3.13059,0.23393 -6.32267,0.35156 -9.48935,0.35156zM76.93439,101.71546c5.98715,0.43042 12.14407,0.43042 18.12989,0c1.70164,-2.54377 3.29233,-5.10893 4.73064,-7.62864c1.50782,-2.64269 2.93409,-5.36157 4.2414,-8.08714c-1.30731,-2.72557 -2.73359,-5.44578 -4.2414,-8.08714c-1.43697,-2.51704 -3.02766,-5.0822 -4.73198,-7.62998c-5.98715,-0.43042 -12.14273,-0.43042 -18.12989,0c-1.70298,2.54778 -3.29501,5.11294 -4.73198,7.62998c-1.50782,2.64269 -2.93409,5.36157 -4.2414,8.08714c1.30731,2.72557 2.73359,5.44578 4.2414,8.08714c1.44098,2.52105 3.03167,5.08487 4.73331,7.62864zM100.55417,102.5362c-0.22724,0 -0.44245,-0.11629 -0.56543,-0.31146c-0.13768,-0.21922 -0.13635,-0.49726 0.00134,-0.71514c1.24047,-1.95294 2.31653,-3.73078 3.28832,-5.43375c1.02125,-1.78853 2.0425,-3.68666 3.03836,-5.63961c0.11763,-0.23125 0.36492,-0.36893 0.6189,-0.36359c0.25932,0.00936 0.49058,0.16709 0.59217,0.4077c1.35677,3.20678 2.53174,6.41357 3.49418,9.52945c0.05614,0.17778 0.03342,0.37161 -0.06015,0.53201c-0.09357,0.16174 -0.2513,0.2767 -0.4331,0.3168c-3.14128,0.70178 -6.47105,1.26453 -9.89571,1.67357c-0.02673,0.00267 -0.05347,0.00401 -0.07887,0.00401zM106.84743,92.32369c-0.79401,1.52118 -1.60139,3.00093 -2.40743,4.41384c-0.77931,1.36612 -1.62545,2.77903 -2.5665,4.28952c2.63333,-0.35022 5.19983,-0.79267 7.65538,-1.31934c-0.77129,-2.4248 -1.66956,-4.89907 -2.68145,-7.38402zM71.44583,102.5362c-0.02673,0 -0.05347,-0.00134 -0.0802,-0.00401c-3.42333,-0.41037 -6.75309,-0.97313 -9.89438,-1.67491c-0.18179,-0.0401 -0.33819,-0.15506 -0.4331,-0.3168c-0.09357,-0.16174 -0.11496,-0.35423 -0.06015,-0.53201c0.96244,-3.11722 2.13741,-6.32267 3.49418,-9.52945c0.10159,-0.23927 0.33284,-0.39834 0.59217,-0.4077c0.24328,-0.0254 0.50127,0.13233 0.6189,0.36359c0.99585,1.95294 2.01711,3.85108 3.03836,5.63961c0.97313,1.70298 2.04919,3.48081 3.28832,5.43375c0.13902,0.21788 0.13902,0.49592 0.00134,0.71514c-0.12298,0.1965 -0.33685,0.31279 -0.56543,0.31279zM62.47245,99.70771c2.45555,0.52667 5.02204,0.96912 7.65538,1.31934c-0.94239,-1.51049 -1.78719,-2.9234 -2.5665,-4.28952c-0.80738,-1.41291 -1.61342,-2.89399 -2.40743,-4.41384c-1.01323,2.48496 -1.9115,4.95922 -2.68145,7.38402zM114.29161,99.90287c-0.28739,0 -0.55073,-0.1858 -0.63895,-0.4732c-1.3033,-4.24942 -3.00494,-8.67396 -5.05546,-13.15062c-0.08154,-0.17645 -0.08154,-0.38096 0,-0.55741c2.05052,-4.47666 3.75216,-8.90253 5.0568,-13.15329c0.10694,-0.34621 0.4732,-0.54003 0.81673,-0.4478c12.12135,3.34046 19.65107,8.65791 19.65107,13.87913c0,5.22122 -7.53106,10.53867 -19.65375,13.87913c-0.05882,0.01604 -0.11897,0.02406 -0.17645,0.02406zM109.93926,85.99968c1.91953,4.21734 3.53294,8.39057 4.79748,12.41543c10.98647,-3.13193 18.04835,-7.97485 18.04835,-12.41543c0,-4.44057 -7.06187,-9.2835 -18.04835,-12.41543c-1.26587,4.02619 -2.87929,8.19942 -4.79748,12.41543zM57.70839,99.90287c-0.05882,0 -0.11763,-0.00802 -0.17778,-0.02406c-12.12135,-3.34046 -19.65241,-8.65791 -19.65241,-13.87913c0,-5.22122 7.52973,-10.53867 19.65241,-13.87913c0.34487,-0.09223 0.7098,0.10159 0.81673,0.4478c1.30464,4.25076 3.00628,8.67663 5.0568,13.15329c0.08154,0.17645 0.08154,0.37963 0,0.55741c-2.05186,4.478 -3.75216,8.90253 -5.05546,13.15062c-0.08822,0.28739 -0.35289,0.4732 -0.64029,0.4732zM57.26326,73.58426c-10.98647,3.13193 -18.04835,7.97485 -18.04835,12.41543c0,4.44057 7.06187,9.2835 18.04835,12.41543c1.26587,-4.02485 2.87795,-8.19675 4.79748,-12.41543c-1.91819,-4.216 -3.53161,-8.38923 -4.79748,-12.41543zM106.91293,81.93205c-0.2513,0 -0.48122,-0.14036 -0.59618,-0.36492c-1.01189,-1.98903 -2.00641,-3.83504 -3.03702,-5.64094v0c-0.97046,-1.7003 -2.04651,-3.47814 -3.28966,-5.43509c-0.13902,-0.21788 -0.13902,-0.49592 -0.00134,-0.71514c0.13768,-0.21788 0.38364,-0.33819 0.64563,-0.30744c3.42601,0.41037 6.75577,0.97313 9.89705,1.67357c0.18179,0.0401 0.33819,0.15506 0.4331,0.3168c0.09357,0.16174 0.11496,0.35423 0.06015,0.53201c-0.96377,3.12257 -2.14008,6.32935 -3.49418,9.53213c-0.10159,0.23927 -0.33284,0.39834 -0.59217,0.4077c-0.01069,0.00134 -0.01871,0.00134 -0.0254,0.00134zM104.43867,75.26317c0.81673,1.43029 1.61074,2.88463 2.40743,4.41384c1.01056,-2.48095 1.90883,-4.95788 2.68012,-7.38536c-2.45555,-0.52667 -5.02204,-0.96912 -7.65671,-1.31934c0.9464,1.51316 1.7912,2.92607 2.56917,4.29086zM65.08707,81.93205c-0.00802,0 -0.01604,0 -0.02406,0c-0.25932,-0.00936 -0.49058,-0.16709 -0.59217,-0.4077c-1.35409,-3.20277 -2.5304,-6.40956 -3.49418,-9.53213c-0.05614,-0.17778 -0.03342,-0.37161 0.06015,-0.53201c0.09357,-0.16174 0.2513,-0.2767 0.4331,-0.3168c3.14128,-0.70178 6.47105,-1.26453 9.89705,-1.67357c0.26066,-0.02673 0.50795,0.08956 0.64563,0.30744c0.13768,0.21922 0.13635,0.49726 -0.00134,0.71514c-1.24315,1.95695 -2.3192,3.73479 -3.28966,5.43509c-1.03061,1.8059 -2.02513,3.65057 -3.03702,5.64094c-0.11629,0.22323 -0.34621,0.36359 -0.59751,0.36359zM62.47245,72.29165c0.77129,2.42748 1.6709,4.90441 2.68012,7.38536c0.79802,-1.5292 1.59069,-2.98355 2.40743,-4.41384c0.77931,-1.36479 1.62411,-2.7777 2.56783,-4.29086c-2.63333,0.35022 -5.19983,0.79267 -7.65538,1.31934zM111.48183,68.58761c-0.04946,0 -0.09758,-0.00535 -0.14704,-0.01604c-4.26145,-0.95976 -8.87179,-1.66689 -13.70135,-2.10266c-0.1965,-0.01738 -0.37695,-0.12164 -0.48924,-0.28472c-2.85122,-4.11174 -5.8321,-7.87861 -8.85842,-11.19768c-0.24061,-0.26333 -0.23125,-0.6697 0.02139,-0.92233c5.61555,-5.62758 10.93835,-9.23404 15.39096,-10.42639v0c2.49832,-0.66836 4.59563,-0.51731 6.22108,0.43042c4.48468,2.61996 5.33216,11.82326 2.20959,24.01813c-0.07753,0.29942 -0.34755,0.50127 -0.64697,0.50127zM98.06387,65.16561c4.53548,0.42107 8.87981,1.08007 12.92739,1.96096c2.74161,-11.11213 2.07057,-19.67513 -1.74709,-21.90478c-1.30865,-0.76327 -3.06242,-0.86352 -5.20116,-0.29408c-4.10907,1.10145 -9.05893,4.42721 -14.3403,9.63238c2.85656,3.1747 5.66634,6.73839 8.36116,10.60551zM60.51817,68.58761c-0.29942,0 -0.56944,-0.20184 -0.64697,-0.50261c-3.12257,-12.19487 -2.27643,-21.39683 2.20826,-24.01679c0,0 0,0 0.00134,0c1.62545,-0.94773 3.72543,-1.09878 6.21974,-0.43042c4.45394,1.19369 9.77541,4.79881 15.39096,10.42639c0.2513,0.25264 0.26066,0.659 0.02139,0.92233c-3.02633,3.31907 -6.00721,7.08727 -8.85842,11.19768c-0.11228,0.16308 -0.2914,0.26734 -0.48924,0.28472c-4.82822,0.43577 -9.43856,1.14289 -13.70135,2.10266c-0.04812,0.01069 -0.09624,0.01604 -0.1457,0.01604zM62.7545,45.2218c-3.81633,2.22964 -4.48736,10.79265 -1.74709,21.90478c4.04758,-0.8809 8.39191,-1.5399 12.92739,-1.96096c2.69616,-3.86712 5.5046,-7.43081 8.35983,-10.60685c-5.28137,-5.20518 -10.22989,-8.53093 -14.3403,-9.63238c-2.12939,-0.5681 -3.88584,-0.46919 -5.19983,0.29541zM92.50179,66.11201c-0.01069,0 -0.02139,0 -0.03208,0c-4.41919,-0.21521 -8.5189,-0.21521 -12.93808,0c-0.27536,0.00668 -0.49993,-0.12565 -0.62157,-0.35156c-0.12164,-0.22724 -0.10293,-0.50394 0.0508,-0.71247c2.12137,-2.88062 4.32294,-5.58748 6.54457,-8.04436c0.25398,-0.27937 0.73787,-0.27937 0.99184,0c2.22029,2.45555 4.42186,5.1624 6.54457,8.04436c0.15239,0.20719 0.17244,0.48523 0.0508,0.71247c-0.11897,0.21655 -0.34621,0.35156 -0.59083,0.35156zM86,64.61221c1.6602,0 3.37788,0.03475 5.12364,0.10293c-1.67357,-2.21494 -3.39259,-4.31492 -5.12364,-6.26118c-1.73105,1.9476 -3.45007,4.04624 -5.12364,6.26118c1.74575,-0.06817 3.46343,-0.10293 5.12364,-0.10293z"></path>
                        </g>
                      </g>
                    </svg>