<svg xmlns="http://www.w3.org/2000/svg" x="0px" y="0px"
width="30" height="30"
viewBox="0 0 171 171"
style=" fill:#000000;"><g fill="none" fill-rule="nonzero" stroke="none" stroke-width="1" stroke-linecap="butt" stroke-linejoin="miter" stroke-miterlimit="10" stroke-dasharray="" stroke-dashoffset="0" font-family="none" font-weight="none" font-size="none" text-anchor="none" style="mix-blend-mode: normal"><path d="M0,171.99654v-171.99654h171.99654v171.99654z" fill="none"></path><path d="M13.32327,171.49827c-7.08305,0 -12.825,-5.74195 -12.825,-12.825v-145.35c0,-7.08305 5.74195,-12.825 12.825,-12.825h145.35c7.08305,0 12.825,5.74195 12.825,12.825v145.35c0,7.08305 -5.74195,12.825 -12.825,12.825z" fill="#34495e"></path><g><path d="M136.8,57l-5.7,74.1l-74.1,5.7z" fill="#9b1010"></path><path d="M96.9,96.9l34.2,34.2l5.7,-74.1z" fill="#b71c1c"></path><path d="M61.99366,61.99448c-25.1766,25.17748 -35.06213,56.11164 -22.07994,69.09338c12.98219,12.98174 43.91601,3.09513 69.09261,-22.08235c25.1766,-25.17748 35.06213,-56.11164 22.07994,-69.09338c-12.98219,-12.98174 -43.91601,-3.09513 -69.09261,22.08235z" fill="#c62828"></path><path d="M45.6,65.55l19.95,-19.95l22.8,-11.4l17.1,11.4l-8.55,25.65l-25.65,22.8l-25.65,8.55l-11.4,-17.1z" fill="#e53935"></path><path d="M105.45,45.6l-17.1,-11.4h31.35zM136.8,59.85l-31.35,-14.25l-8.55,25.65zM71.25,94.05l37.71975,14.91975l-12.06975,-37.71975zM45.6,102.6l11.4,34.2l14.25,-42.75zM34.2,85.5v31.35l11.4,-14.25z" fill="#ff5252"></path></g></g></svg>