<svg xmlns="http://www.w3.org/2000/svg" x="0px" y="0px" width="30" height="30" viewBox="0 0 172 172" style="fill: #000000">
                      <g fill="none" fill-rule="nonzero" stroke="none" stroke-width="1" stroke-linecap="butt" stroke-linejoin="miter" stroke-miterlimit="10" stroke-dasharray="" stroke-dashoffset="0" font-family="none" font-weight="none" font-size="none" text-anchor="none" style="mix-blend-mode: normal">
                        <path d="M0,172v-172h172v172z" fill="none"></path>
                        <path d="M18.06,172c-9.97426,0 -18.06,-8.08574 -18.06,-18.06v-135.88c0,-9.97426 8.08574,-18.06 18.06,-18.06h135.88c9.97426,0 18.06,8.08574 18.06,18.06v135.88c0,9.97426 -8.08574,18.06 -18.06,18.06z" fill="#ff7bbb"></path>
                        <g fill="#ffffff">
                          <path d="M131.38578,93.14473c-4.40289,0.02102 -8.21733,1.08233 -11.41704,2.65855c-1.17165,-2.3328 -2.35381,-4.38713 -2.55347,-5.91606c-0.23118,-1.78112 -0.49913,-2.84769 -0.22067,-4.97033c0.27846,-2.12263 1.50791,-5.12795 1.49215,-5.35387c-0.01576,-0.22592 -0.27321,-1.30826 -2.81617,-1.32402c-2.54296,-0.01576 -4.71288,0.48863 -4.97033,1.16114c-0.25745,0.67252 -0.74607,2.18043 -1.05081,3.75664c-0.44659,2.30127 -5.07015,10.5186 -7.69718,14.81641c-0.86166,-1.67604 -1.59198,-3.15768 -1.74434,-4.32408c-0.23118,-1.78112 -0.49913,-2.84769 -0.22067,-4.97033c0.27846,-2.12263 1.50791,-5.12795 1.49215,-5.35387c-0.01576,-0.22592 -0.27321,-1.30826 -2.81617,-1.32402c-2.54296,-0.01576 -4.71288,0.48863 -4.97033,1.16114c-0.25745,0.67252 -0.53066,2.23822 -1.05081,3.75664c-0.52015,1.51842 -6.67264,15.22097 -8.28038,18.7727c-0.81963,1.80739 -1.53418,3.26276 -2.03857,4.25578l-0.00525,-0.00525c0,0 -0.03152,0.0683 -0.08406,0.17864c-0.43083,0.8459 -0.68828,1.31351 -0.68828,1.31351c0,0 0.00525,0.00525 0.00525,0.01576c-0.34151,0.61998 -0.7093,1.19792 -0.89319,1.19792c-0.1261,0 -0.38355,-1.64977 0.05779,-3.91952c0.9142,-4.75491 3.11565,-12.16837 3.08938,-12.42056c-0.01051,-0.13135 0.40982,-1.42385 -1.43435,-2.09636c-1.79163,-0.65676 -2.43262,0.43609 -2.5955,0.44134c-0.15762,0.00525 -0.27846,0.3888 -0.27846,0.3888c0,0 1.99654,-8.33817 -3.80918,-8.33817c-3.63055,0 -8.65867,3.97206 -11.13858,7.57108c-1.56571,0.85116 -4.91253,2.67956 -8.45901,4.62881c-1.36605,0.75133 -2.75312,1.51317 -4.07714,2.24348c-0.08932,-0.09983 -0.17864,-0.19965 -0.27321,-0.29948c-7.04042,-7.51329 -20.05995,-12.82512 -19.50302,-22.9234c0.19965,-3.67258 1.47639,-13.34002 25.00926,-25.06705c19.27709,-9.6044 34.71348,-6.96161 37.37728,-1.10335c3.80918,8.36969 -8.24885,23.92692 -28.26676,26.1704c-7.62887,0.85641 -11.64296,-2.10162 -12.64123,-3.19971c-1.05081,-1.16114 -1.20843,-1.21368 -1.60248,-0.99301c-0.64099,0.35202 -0.23643,1.37656 0,1.98603c0.59896,1.5552 3.0526,4.31357 7.23482,5.68488c3.67783,1.20843 12.63598,1.87044 23.46457,-2.31703c12.13159,-4.69186 21.60463,-17.74291 18.81999,-28.65556c-2.83193,-11.09654 -21.22634,-14.74285 -38.6435,-8.55884c-10.35047,3.66207 -21.57311,9.44152 -29.63807,16.98633c-9.58863,8.96866 -11.12281,16.78142 -10.49233,20.04418c2.23822,11.59042 18.21578,19.14049 24.6152,24.73605c-0.31524,0.17338 -0.60947,0.33626 -0.88268,0.48863c-3.21022,1.58672 -15.3891,7.95988 -18.43645,14.69557c-3.45716,7.63938 0.55167,13.11935 3.19971,13.86017c8.21733,2.28551 16.65007,-1.82841 21.17906,-8.58511c4.52899,-6.7567 3.97731,-15.55723 1.89671,-19.57132c-0.02627,-0.04729 -0.05254,-0.09983 -0.07881,-0.14711c0.83014,-0.48863 1.67079,-0.98776 2.51143,-1.48164c1.63401,-0.95624 3.23649,-1.85468 4.62356,-2.61126c-0.7776,2.13314 -1.35029,4.68661 -1.64452,8.3802c-0.33626,4.32933 1.43961,9.9354 3.76715,12.1421c1.02454,0.972 2.25399,0.99301 3.03684,0.99301c2.70583,0 3.94053,-2.24873 5.30133,-4.91253c1.66553,-3.26802 3.14717,-7.06669 3.14717,-7.06669c0,0 -1.85468,10.27166 3.20497,10.27166c1.84417,0 3.69885,-2.39059 4.52373,-3.60953c0,0.01576 0.00525,0.02102 0.00525,0.02102c0,0 0.04729,-0.07881 0.14186,-0.23643c0.18915,-0.29423 0.29948,-0.47812 0.29948,-0.47812c0,0 0.00525,-0.02102 0.01051,-0.05254c0.74082,-1.28724 2.38534,-4.219 4.84948,-9.05797c3.18395,-6.25231 6.23655,-14.08084 6.23655,-14.08084c0,0 0.28372,1.91247 1.21368,5.08066c0.54642,1.85993 1.71282,3.91952 2.62702,5.89504c-0.74082,1.02454 -1.19267,1.61299 -1.19267,1.61299c0,0 0.00525,0.01051 0.01051,0.03152c-0.58845,0.78285 -1.25046,1.62875 -1.944,2.45364c-2.51143,2.99481 -5.50624,6.40994 -5.90555,7.3977c-0.47286,1.16114 -0.36253,2.01755 0.55167,2.70583c0.66726,0.50439 1.85468,0.57795 3.09463,0.49913c2.25924,-0.15237 3.84596,-0.71455 4.63407,-1.05081c1.22419,-0.43083 2.64804,-1.11386 3.98257,-2.09636c2.46415,-1.81265 3.95104,-4.40814 3.80918,-7.83904c-0.07881,-1.89146 -0.68303,-3.76715 -1.44486,-5.53776c0.22592,-0.3205 0.44659,-0.64625 0.67252,-0.97725c3.88799,-5.67962 6.90382,-11.92668 6.90382,-11.92668c0,0 0.28372,1.91247 1.21368,5.08066c0.47286,1.60248 1.39758,3.35208 2.23822,5.0649c-3.65682,2.96854 -5.92131,6.42044 -6.70942,8.68494c-1.45537,4.18747 -0.31524,6.08418 1.82315,6.51502c0.96674,0.1944 2.33805,-0.24694 3.36259,-0.68303c1.28199,-0.42558 2.81617,-1.12962 4.25578,-2.18568c2.46415,-1.81265 4.83372,-4.35035 4.69186,-7.7865c-0.06305,-1.56571 -0.48863,-3.11565 -1.06657,-4.6078c3.09989,-1.2925 7.10872,-2.00705 12.21566,-1.41334c10.95994,1.28199 13.10884,8.12275 12.69903,10.98621c-0.40982,2.86345 -2.71109,4.43967 -3.47818,4.91253c-0.76709,0.47286 -1.00352,0.64099 -0.94047,0.99301c0.09457,0.5149 0.44659,0.49388 1.10335,0.38355c0.9037,-0.15237 5.75318,-2.32754 5.96334,-7.61837c0.25745,-6.71992 -6.1735,-14.09135 -17.56427,-14.0283zM46.91124,121.62166c-3.63055,3.96155 -8.7007,5.45895 -10.87587,4.19798c-2.34856,-1.3608 -1.41859,-7.19279 3.03684,-11.39602c2.71634,-2.55872 6.22079,-4.91779 8.54833,-6.37316c0.53066,-0.3205 1.30826,-0.78811 2.25399,-1.35029c0.15762,-0.08932 0.24694,-0.13661 0.24694,-0.13661l-0.00525,-0.00525c0.18389,-0.11033 0.36778,-0.22067 0.56218,-0.33626c1.61299,5.9791 0.04203,11.24366 -3.76715,15.39961zM73.35485,103.64231c-1.26622,3.08412 -3.90901,10.97045 -5.522,10.54487c-1.38181,-0.36253 -2.22246,-6.3574 -0.27846,-12.25769c0.98251,-2.96854 3.07362,-6.52027 4.30832,-7.89683c1.98078,-2.21721 4.1612,-2.94227 4.69186,-2.04382c0.68303,1.15064 -2.40635,9.72524 -3.19971,11.65347zM95.20643,114.07159c-0.53591,0.27846 -1.02979,0.4571 -1.25572,0.3205c-0.16813,-0.09983 0.22067,-0.46761 0.22067,-0.46761c0,0 2.7321,-2.94227 3.80918,-4.27679c0.62523,-0.7776 1.35029,-1.70231 2.14365,-2.73736c0.00525,0.10508 0.01051,0.20491 0.01051,0.30473c-0.00525,3.52021 -3.40988,5.90029 -4.92829,6.85653zM112.04039,110.23088c-0.39931,-0.28372 -0.331,-1.20318 0.98251,-4.06663c0.5149,-1.12437 1.6918,-3.01582 3.74088,-4.82847c0.23643,0.74607 0.38355,1.45537 0.37829,2.12263c-0.02627,4.43441 -3.18921,6.08944 -5.10168,6.77246z"></path>
                        </g>
                      </g>
                    </svg>