<svg xmlns="http://www.w3.org/2000/svg" x="0px" y="0px"
width="30" height="30"
viewBox="0 0 171 171"
style=" fill:#000000;"><g fill="none" fill-rule="nonzero" stroke="none" stroke-width="1" stroke-linecap="butt" stroke-linejoin="miter" stroke-miterlimit="10" stroke-dasharray="" stroke-dashoffset="0" font-family="none" font-weight="none" font-size="none" text-anchor="none" style="mix-blend-mode: normal"><path d="M0,171.99654v-171.99654h171.99654v171.99654z" fill="none"></path><path d="M13.32327,171.49827c-7.08305,0 -12.825,-5.74195 -12.825,-12.825v-145.35c0,-7.08305 5.74195,-12.825 12.825,-12.825h145.35c7.08305,0 12.825,5.74195 12.825,12.825v145.35c0,7.08305 -5.74195,12.825 -12.825,12.825z" fill="#2ecc71"></path><g fill="#000000"><path d="M26.94707,27.36c-4.14991,0 -7.51526,3.36535 -7.51526,7.51526v10.98384h132.13636v-10.98384c0,-4.14991 -3.36535,-7.51526 -7.51526,-7.51526zM19.43182,51.14455v89.85273c0,1.46589 1.18716,2.64273 2.64273,2.64273h126.85091c1.46589,0 2.64273,-1.17684 2.64273,-2.64273v-89.85273zM59.32048,72.20378c0.68133,0.01032 1.31104,0.21679 1.81688,0.74327l17.50807,18.00358l-17.92099,17.50807c-0.51616,0.49551 -1.14587,0.74327 -1.81687,0.74327c-0.69165,0 -1.3833,-0.29937 -1.89946,-0.82585c-1.02199,-1.04264 -1.04264,-2.69434 0,-3.71634l14.20466,-13.79173l-13.79173,-14.20466c-1.02199,-1.04264 -1.04264,-2.69434 0,-3.71634c0.52648,-0.51616 1.21813,-0.75359 1.89946,-0.74327zM80.21455,103.99909h34.35545c1.46589,0 2.64273,1.17684 2.64273,2.64273c0,1.46589 -1.17684,2.64273 -2.64273,2.64273h-34.35545c-1.45556,0 -2.64273,-1.17684 -2.64273,-2.64273c0,-1.46589 1.18716,-2.64273 2.64273,-2.64273z"></path></g></g></svg>