<svg xmlns="http://www.w3.org/2000/svg" x="0px" y="0px"
width="30" height="30"
viewBox="0 0 171 171"
style=" fill:#000000;"><g fill="none" fill-rule="nonzero" stroke="none" stroke-width="1" stroke-linecap="butt" stroke-linejoin="miter" stroke-miterlimit="10" stroke-dasharray="" stroke-dashoffset="0" font-family="none" font-weight="none" font-size="none" text-anchor="none" style="mix-blend-mode: normal"><path d="M0,171.99654v-171.99654h171.99654v171.99654z" fill="none"></path><path d="M13.32327,171.49827c-7.08305,0 -12.825,-5.74195 -12.825,-12.825v-145.35c0,-7.08305 5.74195,-12.825 12.825,-12.825h145.35c7.08305,0 12.825,5.74195 12.825,12.825v145.35c0,7.08305 -5.74195,12.825 -12.825,12.825z" fill="#e74c3c"></path><g fill="#ffffff"><path d="M69.27055,25.992v10.81964h-18.93436c-7.57375,0 -13.52455,5.9508 -13.52455,13.52455v21.63927h-13.52455v27.04909h32.45891v-27.04909h-13.52455v-21.63927c0,-4.59835 3.51638,-8.11473 8.11473,-8.11473h18.93436v10.81964h32.45891v-27.04909zM74.68036,31.40182h21.63927v16.22945h-21.63927zM107.13927,36.81164v5.40982h13.52455c4.59835,0 8.11473,3.51638 8.11473,8.11473v21.63927h-13.52455v27.04909h32.45891v-27.04909h-13.52455v-21.63927c0,-7.57375 -5.9508,-13.52455 -13.52455,-13.52455zM28.69691,77.38527h21.63927v16.22945h-21.63927zM120.66382,77.38527h21.63927v16.22945h-21.63927zM36.81164,104.43436v16.22945c0,7.57375 5.9508,13.52455 13.52455,13.52455h18.93436v10.81964h32.45891v-27.04909h-32.45891v10.81964h-18.93436c-4.59835,0 -8.11473,-3.51638 -8.11473,-8.11473v-16.22945zM128.77855,104.43436v16.22945c0,4.59835 -3.51638,8.11473 -8.11473,8.11473h-13.52455v5.40982h13.52455c7.57375,0 13.52455,-5.9508 13.52455,-13.52455v-16.22945zM74.68036,123.36873h21.63927v16.22945h-21.63927z"></path></g></g></svg>