<svg xmlns="http://www.w3.org/2000/svg" x="0px" y="0px" width="30" height="30" viewBox="0 0 172 172" style="fill: #000000">
                      <g fill="none" fill-rule="nonzero" stroke="none" stroke-width="1" stroke-linecap="butt" stroke-linejoin="miter" stroke-miterlimit="10" stroke-dasharray="" stroke-dashoffset="0" font-family="none" font-weight="none" font-size="none" text-anchor="none" style="mix-blend-mode: normal">
                        <path d="M0,172v-172h172v172z" fill="none"></path>
                        <path d="M18.06,172c-9.97426,0 -18.06,-8.08574 -18.06,-18.06v-135.88c0,-9.97426 8.08574,-18.06 18.06,-18.06h135.88c9.97426,0 18.06,8.08574 18.06,18.06v135.88c0,9.97426 -8.08574,18.06 -18.06,18.06z" fill="#7fdb6e"></path>
                        <g fill="#ffffff">
                          <path d="M85.97481,30.1c-1.5695,0 -3.13866,0.38498 -4.49316,1.15898l-42.61367,24.59902c-2.752,1.591 -4.46797,4.60335 -4.46797,7.78535v44.6293c0,3.225 1.71597,6.19435 4.46797,7.78535l11.18672,6.45c5.418,2.666 7.34998,2.66231 9.80098,2.66231c8.041,0 12.63965,-4.85833 12.63965,-13.28633v-46.04863c0,-0.688 -0.55497,-1.25137 -1.24297,-1.25137h-5.375c-0.731,0 -1.25136,0.56337 -1.25136,1.25137v46.00664c0,3.784 -3.9083,7.48099 -10.2293,4.34199l-11.69902,-6.75234c-0.43,-0.215 -0.68867,-0.68599 -0.68867,-1.15898v-44.58731c0,-0.516 0.25867,-0.95137 0.68867,-1.20937l42.61367,-24.59063c0.387,-0.258 0.90535,-0.258 1.33535,0l42.61367,24.59063c0.43,0.258 0.68867,0.69438 0.68867,1.16738v44.6293c0,0.473 -0.25968,0.94398 -0.64668,1.15898l-42.65566,24.64102c-0.387,0.215 -0.94835,0.215 -1.33535,0l-10.96836,-6.49199c-0.301,-0.215 -0.72361,-0.25598 -1.02461,-0.08398c-3.053,1.72 -3.612,1.93365 -6.45,2.92265c-0.688,0.215 -1.76367,0.64366 0.38633,1.84766l14.22695,8.43203c1.376,0.774 2.92836,1.20098 4.47636,1.20098c1.591,0 3.13396,-0.42698 4.50996,-1.20098l42.66407,-24.64102c2.752,-1.591 4.46797,-4.56035 4.46797,-7.78535v-44.58731c0,-3.225 -1.71597,-6.19435 -4.46797,-7.78535l-42.66407,-24.64102c-1.3545,-0.774 -2.92366,-1.15898 -4.49316,-1.15898zM97.43867,64.52519c-12.169,0 -19.43398,5.15664 -19.43398,13.75664c0,9.331 7.21728,11.90697 18.91328,13.06797c13.975,1.376 15.05,3.44605 15.05,6.19805c0,4.73 -3.82061,6.75234 -12.80761,6.75234c-11.309,0 -13.80468,-2.84203 -14.62168,-8.43203c-0.086,-0.602 -0.59898,-1.03301 -1.20098,-1.03301h-5.55136c-0.688,0 -1.20098,0.56437 -1.20098,1.20937c0,7.181 3.913,15.73027 22.575,15.73027c13.502,0 21.23965,-5.32528 21.23965,-14.61328c0,-9.202 -6.23601,-11.6577 -19.30801,-13.4207c-13.287,-1.72 -14.62168,-2.62334 -14.62168,-5.71934c0,-2.58 1.16436,-5.97129 10.96836,-5.97129c8.729,0 11.99532,1.88595 13.32832,7.77695c0.129,0.559 0.59897,0.99102 1.20097,0.99102h5.55137c0.344,0 0.64064,-0.17032 0.89863,-0.42832c0.215,-0.215 0.34535,-0.56202 0.30235,-0.94902c-0.86,-10.148 -7.60764,-14.91563 -21.28164,-14.91563z"></path>
                        </g>
                      </g>
                    </svg>