<svg xmlns="http://www.w3.org/2000/svg" x="0px" y="0px" width="30" height="30" viewBox="0 0 172 172" style="fill: #000000">
                      <g fill="none" fill-rule="nonzero" stroke="none" stroke-width="1" stroke-linecap="butt" stroke-linejoin="miter" stroke-miterlimit="10" stroke-dasharray="" stroke-dashoffset="0" font-family="none" font-weight="none" font-size="none" text-anchor="none" style="mix-blend-mode: normal">
                        <path d="M0,172v-172h172v172z" fill="none"></path>
                        <path d="M20.64,172c-11.39916,0 -20.64,-9.24084 -20.64,-20.64v-130.72c0,-11.39916 9.24084,-20.64 20.64,-20.64h130.72c11.39916,0 20.64,9.24084 20.64,20.64v130.72c0,11.39916 -9.24084,20.64 -20.64,20.64z" fill="#692AD9"></path>
                        <g>
                          <path d="M85.82154,31.5336c-4.45764,0.01433 -7.5479,0.40706 -11.28314,1.05206c-11.03088,1.92066 -13.0404,5.95404 -13.0404,13.38727v11.36054h25.79987v5.7333h-26.78027h-12.46994c-7.5565,0 -14.16986,3.56038 -16.26539,12.09441c-2.36785,9.79535 -2.47392,15.92999 0,26.1582c1.87766,7.62816 6.01424,13.34713 13.5736,13.34713h10.41168v-14.63139c0,-8.50249 7.69983,-16.90178 16.52338,-16.90178h20.7431c7.23256,0 14.33326,-5.33771 14.33326,-12.54734v-24.61308c0,-6.99177 -5.04244,-12.22054 -12.09154,-13.393c0.17487,-0.0172 -5.03384,-1.06353 -9.45422,-1.04633zM71.53415,43.00021c2.35352,0 4.29998,1.94072 4.29998,4.30571c0,2.38792 -1.94646,4.29425 -4.29998,4.29425c-2.39939,0 -4.29998,-1.90346 -4.29998,-4.29425c0,-2.35639 1.90059,-4.30571 4.29998,-4.30571z" fill="#3498db"></path>
                          <path d="M83.04376,140.4664c4.45764,-0.01433 7.5479,-0.40706 11.28314,-1.05206c11.03088,-1.92066 13.0404,-5.95404 13.0404,-13.38727v-11.36054h-25.79987v-5.7333h26.78313h12.46994c7.5565,0 14.16986,-3.56038 16.26539,-12.09441c2.36785,-9.79535 2.47392,-15.92999 0,-26.1582c-1.88052,-7.62816 -6.0171,-13.34713 -13.57647,-13.34713h-10.41168v14.63139c0,8.50249 -7.69983,16.90178 -16.52338,16.90178h-20.7431c-7.23256,0 -14.33326,5.33771 -14.33326,12.54734v24.61308c0,6.99177 5.04244,12.22054 12.09154,13.393c-0.17487,0.0172 5.03384,1.06353 9.45422,1.04633zM97.33402,128.99979c-2.35352,0 -4.29998,-1.94072 -4.29998,-4.30571c0,-2.38792 1.94646,-4.29425 4.29998,-4.29425c2.39939,0 4.29998,1.90346 4.29998,4.29425c0,2.35639 -1.90346,4.30571 -4.29998,4.30571z" fill="#f1c40f"></path>
                        </g>
                      </g>
                    </svg>